<svg xmlns="http://www.w3.org/2000/svg" width="900" height="290" style="font-family: -apple-system, BlinkMacSystemFont, 'Segoe UI', Helvetica, Arial, sans-serif;">
  <rect width="100%" height="100%" fill="#0d1117"/>
  <g>
    <line x1="40" y1="220.00" x2="860" y2="220.00" stroke="#30363d"/><text x="32" y="224.00" font-size="10" fill="#c9d1d9" text-anchor="end">0</text><line x1="40" y1="175.00" x2="860" y2="175.00" stroke="#30363d"/><text x="32" y="179.00" font-size="10" fill="#c9d1d9" text-anchor="end">750</text><line x1="40" y1="130.00" x2="860" y2="130.00" stroke="#30363d"/><text x="32" y="134.00" font-size="10" fill="#c9d1d9" text-anchor="end">1.5k</text><line x1="40" y1="85.00" x2="860" y2="85.00" stroke="#30363d"/><text x="32" y="89.00" font-size="10" fill="#c9d1d9" text-anchor="end">2.2k</text><line x1="40" y1="40.00" x2="860" y2="40.00" stroke="#30363d"/><text x="32" y="44.00" font-size="10" fill="#c9d1d9" text-anchor="end">3k</text>
    <line x1="40.00" y1="40" x2="40.00" y2="220" stroke="#30363d" opacity="0.5"/><line x1="131.11" y1="40" x2="131.11" y2="220" stroke="#30363d" opacity="0.5"/><line x1="222.22" y1="40" x2="222.22" y2="220" stroke="#30363d" opacity="0.5"/><line x1="313.33" y1="40" x2="313.33" y2="220" stroke="#30363d" opacity="0.5"/><line x1="404.44" y1="40" x2="404.44" y2="220" stroke="#30363d" opacity="0.5"/><line x1="495.56" y1="40" x2="495.56" y2="220" stroke="#30363d" opacity="0.5"/><line x1="586.67" y1="40" x2="586.67" y2="220" stroke="#30363d" opacity="0.5"/><line x1="677.78" y1="40" x2="677.78" y2="220" stroke="#30363d" opacity="0.5"/><line x1="768.89" y1="40" x2="768.89" y2="220" stroke="#30363d" opacity="0.5"/><line x1="860.00" y1="40" x2="860.00" y2="220" stroke="#30363d" opacity="0.5"/>
    <line x1="40" y1="220" x2="860" y2="220" stroke="#30363d"/>
    <line x1="40" y1="40"   x2="40"   y2="220" stroke="#30363d"/>
    <path d="M 40.00 116.44 L 131.11 115.42 L 222.22 115.42 L 313.33 107.74 L 404.44 107.74 L 495.56 106.84 L 586.67 106.84 L 677.78 103.90 L 768.89 103.90 L 860.00 103.90" fill="none" stroke="#3fb950" stroke-width="2"/>
    <circle cx="860.00" cy="103.90" r="3" fill="#3fb950"/>
    <text x="40.00" y="235.00" font-size="9" fill="#c9d1d9" text-anchor="middle" transform="rotate(-45 40.00 235.00)">16.09.2026</text><text x="131.11" y="235.00" font-size="9" fill="#c9d1d9" text-anchor="middle" transform="rotate(-45 131.11 235.00)">17.09.2026</text><text x="222.22" y="235.00" font-size="9" fill="#c9d1d9" text-anchor="middle" transform="rotate(-45 222.22 235.00)">16.09.2026</text><text x="313.33" y="235.00" font-size="9" fill="#c9d1d9" text-anchor="middle" transform="rotate(-45 313.33 235.00)">17.09.2026</text><text x="404.44" y="235.00" font-size="9" fill="#c9d1d9" text-anchor="middle" transform="rotate(-45 404.44 235.00)">18.09.2026</text><text x="495.56" y="235.00" font-size="9" fill="#c9d1d9" text-anchor="middle" transform="rotate(-45 495.56 235.00)">19.09.2026</text><text x="586.67" y="235.00" font-size="9" fill="#c9d1d9" text-anchor="middle" transform="rotate(-45 586.67 235.00)">19.09.2026</text><text x="677.78" y="235.00" font-size="9" fill="#c9d1d9" text-anchor="middle" transform="rotate(-45 677.78 235.00)">20.09.2026</text><text x="768.89" y="235.00" font-size="9" fill="#c9d1d9" text-anchor="middle" transform="rotate(-45 768.89 235.00)">20.09.2026</text><text x="860.00" y="235.00" font-size="9" fill="#c9d1d9" text-anchor="middle" transform="rotate(-45 860.00 235.00)">25.09.2026</text>
  </g>
</svg>