<svg xmlns="http://www.w3.org/2000/svg" width="900" height="290" style="font-family: -apple-system, BlinkMacSystemFont, 'Segoe UI', Helvetica, Arial, sans-serif;">
  <rect width="100%" height="100%" fill="white"/>
  <g>
    <line x1="40" y1="220.00" x2="860" y2="220.00" stroke="#e5e7eb"/><text x="32" y="224.00" font-size="10" fill="#111827" text-anchor="end">0</text><line x1="40" y1="175.00" x2="860" y2="175.00" stroke="#e5e7eb"/><text x="32" y="179.00" font-size="10" fill="#111827" text-anchor="end">1.2k</text><line x1="40" y1="130.00" x2="860" y2="130.00" stroke="#e5e7eb"/><text x="32" y="134.00" font-size="10" fill="#111827" text-anchor="end">2.5k</text><line x1="40" y1="85.00" x2="860" y2="85.00" stroke="#e5e7eb"/><text x="32" y="89.00" font-size="10" fill="#111827" text-anchor="end">3.8k</text><line x1="40" y1="40.00" x2="860" y2="40.00" stroke="#e5e7eb"/><text x="32" y="44.00" font-size="10" fill="#111827" text-anchor="end">5k</text>
    <line x1="40.00" y1="40" x2="40.00" y2="220" stroke="#e5e7eb" opacity="0.5"/><line x1="113.21" y1="40" x2="113.21" y2="220" stroke="#e5e7eb" opacity="0.5"/><line x1="186.43" y1="40" x2="186.43" y2="220" stroke="#e5e7eb" opacity="0.5"/><line x1="259.64" y1="40" x2="259.64" y2="220" stroke="#e5e7eb" opacity="0.5"/><line x1="332.86" y1="40" x2="332.86" y2="220" stroke="#e5e7eb" opacity="0.5"/><line x1="406.07" y1="40" x2="406.07" y2="220" stroke="#e5e7eb" opacity="0.5"/><line x1="479.29" y1="40" x2="479.29" y2="220" stroke="#e5e7eb" opacity="0.5"/><line x1="552.50" y1="40" x2="552.50" y2="220" stroke="#e5e7eb" opacity="0.5"/><line x1="625.71" y1="40" x2="625.71" y2="220" stroke="#e5e7eb" opacity="0.5"/><line x1="698.93" y1="40" x2="698.93" y2="220" stroke="#e5e7eb" opacity="0.5"/><line x1="772.14" y1="40" x2="772.14" y2="220" stroke="#e5e7eb" opacity="0.5"/><line x1="845.36" y1="40" x2="845.36" y2="220" stroke="#e5e7eb" opacity="0.5"/>
    <line x1="40" y1="220" x2="860" y2="220" stroke="#9ca3af"/>
    <line x1="40" y1="40"   x2="40"   y2="220" stroke="#9ca3af"/>
    <path d="M 40.00 157.86 L 54.64 157.25 L 69.29 157.25 L 83.93 152.64 L 98.57 152.64 L 113.21 152.10 L 127.86 152.10 L 142.50 150.34 L 157.14 150.34 L 171.79 150.34 L 186.43 150.34 L 201.07 150.34 L 215.71 151.06 L 230.36 151.06 L 245.00 151.06 L 259.64 150.88 L 274.29 150.88 L 288.93 129.89 L 303.57 115.38 L 318.21 150.88 L 332.86 114.52 L 347.50 114.12 L 362.14 110.78 L 376.79 108.62 L 391.43 107.75 L 406.07 106.38 L 420.71 98.10 L 435.36 97.60 L 450.00 97.20 L 464.64 96.34 L 479.29 95.22 L 493.93 91.08 L 508.57 89.32 L 523.21 89.79 L 537.86 89.72 L 552.50 89.72 L 567.14 88.74 L 581.79 89.14 L 596.43 88.67 L 611.07 88.20 L 625.71 85.07 L 640.36 80.61 L 655.00 80.61 L 669.64 80.43 L 684.29 76.76 L 698.93 75.35 L 713.57 74.24 L 728.21 73.70 L 742.86 72.94 L 757.50 72.76 L 772.14 72.90 L 786.79 72.80 L 801.43 72.76 L 816.07 72.90 L 830.71 72.76 L 845.36 72.76 L 860.00 68.69" fill="none" stroke="#111827" stroke-width="2"/>
    <circle cx="860.00" cy="68.69" r="3" fill="#111827"/>
    <text x="40.00" y="235.00" font-size="9" fill="#111827" text-anchor="middle" transform="rotate(-45 40.00 235.00)">16.09.2026</text><text x="113.21" y="235.00" font-size="9" fill="#111827" text-anchor="middle" transform="rotate(-45 113.21 235.00)">19.09.2026</text><text x="186.43" y="235.00" font-size="9" fill="#111827" text-anchor="middle" transform="rotate(-45 186.43 235.00)">25.09.2026</text><text x="259.64" y="235.00" font-size="9" fill="#111827" text-anchor="middle" transform="rotate(-45 259.64 235.00)">28.09.2026</text><text x="332.86" y="235.00" font-size="9" fill="#111827" text-anchor="middle" transform="rotate(-45 332.86 235.00)">29.09.2026</text><text x="406.07" y="235.00" font-size="9" fill="#111827" text-anchor="middle" transform="rotate(-45 406.07 235.00)">29.09.2026</text><text x="479.29" y="235.00" font-size="9" fill="#111827" text-anchor="middle" transform="rotate(-45 479.29 235.00)">29.09.2026</text><text x="552.50" y="235.00" font-size="9" fill="#111827" text-anchor="middle" transform="rotate(-45 552.50 235.00)">29.09.2026</text><text x="625.71" y="235.00" font-size="9" fill="#111827" text-anchor="middle" transform="rotate(-45 625.71 235.00)">29.09.2026</text><text x="698.93" y="235.00" font-size="9" fill="#111827" text-anchor="middle" transform="rotate(-45 698.93 235.00)">29.09.2026</text><text x="772.14" y="235.00" font-size="9" fill="#111827" text-anchor="middle" transform="rotate(-45 772.14 235.00)">29.09.2026</text><text x="845.36" y="235.00" font-size="9" fill="#111827" text-anchor="middle" transform="rotate(-45 845.36 235.00)">01.10.2026</text>
  </g>
</svg>